<mxfile host="app.diagrams.net" modified="2023-08-27T01:58:00.509Z" agent="Mozilla/5.0 (Windows NT 10.0; Win64; x64) AppleWebKit/537.36 (KHTML, like Gecko) Chrome/116.0.0.0 Safari/537.36 Edg/116.0.1938.54" etag="8cxZINQjaZ-10hNnNjJY" version="21.6.8" type="github">
  <diagram name="第 1 页" id="VND5pcq-Hqs0yGt0yT8e">
    <mxGraphModel dx="1398" dy="909" grid="1" gridSize="10" guides="1" tooltips="1" connect="1" arrows="1" fold="1" page="1" pageScale="1" pageWidth="827" pageHeight="1169" math="0" shadow="0">
      <root>
        <mxCell id="0" />
        <mxCell id="1" parent="0" />
        <mxCell id="fO8qTspgher3NZT-mJDD-20" style="edgeStyle=orthogonalEdgeStyle;rounded=0;orthogonalLoop=1;jettySize=auto;html=1;entryX=0;entryY=0.5;entryDx=0;entryDy=0;fontSize=15;" edge="1" parent="1" source="fO8qTspgher3NZT-mJDD-1" target="fO8qTspgher3NZT-mJDD-6">
          <mxGeometry relative="1" as="geometry" />
        </mxCell>
        <mxCell id="fO8qTspgher3NZT-mJDD-1" value="" style="shape=mxgraph.cisco.computers_and_peripherals.laptop;sketch=0;html=1;pointerEvents=1;dashed=0;fillColor=#036897;strokeColor=#ffffff;strokeWidth=2;verticalLabelPosition=bottom;verticalAlign=top;align=center;outlineConnect=0;fontSize=15;" vertex="1" parent="1">
          <mxGeometry x="45" y="289" width="90" height="61" as="geometry" />
        </mxCell>
        <mxCell id="fO8qTspgher3NZT-mJDD-21" value="" style="edgeStyle=orthogonalEdgeStyle;rounded=0;orthogonalLoop=1;jettySize=auto;html=1;fontSize=15;" edge="1" parent="1" source="fO8qTspgher3NZT-mJDD-6" target="fO8qTspgher3NZT-mJDD-12">
          <mxGeometry relative="1" as="geometry" />
        </mxCell>
        <mxCell id="fO8qTspgher3NZT-mJDD-26" value="合法用户" style="edgeLabel;html=1;align=center;verticalAlign=middle;resizable=0;points=[];fontSize=15;" vertex="1" connectable="0" parent="fO8qTspgher3NZT-mJDD-21">
          <mxGeometry x="-0.2998" y="4" relative="1" as="geometry">
            <mxPoint x="15" y="-10" as="offset" />
          </mxGeometry>
        </mxCell>
        <mxCell id="fO8qTspgher3NZT-mJDD-23" style="edgeStyle=orthogonalEdgeStyle;rounded=0;orthogonalLoop=1;jettySize=auto;html=1;entryX=0.5;entryY=0;entryDx=0;entryDy=0;dashed=1;fontSize=15;" edge="1" parent="1" source="fO8qTspgher3NZT-mJDD-6" target="fO8qTspgher3NZT-mJDD-17">
          <mxGeometry relative="1" as="geometry" />
        </mxCell>
        <mxCell id="fO8qTspgher3NZT-mJDD-29" value="非法用户&lt;br style=&quot;font-size: 15px;&quot;&gt;拒绝入网" style="edgeLabel;html=1;align=center;verticalAlign=middle;resizable=0;points=[];fontSize=15;" vertex="1" connectable="0" parent="fO8qTspgher3NZT-mJDD-23">
          <mxGeometry x="-0.5421" y="-2" relative="1" as="geometry">
            <mxPoint x="-38" y="9" as="offset" />
          </mxGeometry>
        </mxCell>
        <mxCell id="fO8qTspgher3NZT-mJDD-6" value="身份认证" style="rounded=1;whiteSpace=wrap;html=1;fontSize=15;" vertex="1" parent="1">
          <mxGeometry x="225" y="290" width="120" height="60" as="geometry" />
        </mxCell>
        <mxCell id="fO8qTspgher3NZT-mJDD-22" style="edgeStyle=orthogonalEdgeStyle;rounded=0;orthogonalLoop=1;jettySize=auto;html=1;entryX=0;entryY=0.5;entryDx=0;entryDy=0;fontSize=15;" edge="1" parent="1" source="fO8qTspgher3NZT-mJDD-12" target="fO8qTspgher3NZT-mJDD-15">
          <mxGeometry relative="1" as="geometry" />
        </mxCell>
        <mxCell id="fO8qTspgher3NZT-mJDD-27" value="合格用户" style="edgeLabel;html=1;align=center;verticalAlign=middle;resizable=0;points=[];fontSize=15;" vertex="1" connectable="0" parent="fO8qTspgher3NZT-mJDD-22">
          <mxGeometry x="-0.0051" y="3" relative="1" as="geometry">
            <mxPoint x="2" y="-12" as="offset" />
          </mxGeometry>
        </mxCell>
        <mxCell id="fO8qTspgher3NZT-mJDD-24" style="edgeStyle=orthogonalEdgeStyle;rounded=0;orthogonalLoop=1;jettySize=auto;html=1;entryX=0.5;entryY=0;entryDx=0;entryDy=0;dashed=1;fontSize=15;" edge="1" parent="1" source="fO8qTspgher3NZT-mJDD-12" target="fO8qTspgher3NZT-mJDD-18">
          <mxGeometry relative="1" as="geometry" />
        </mxCell>
        <mxCell id="fO8qTspgher3NZT-mJDD-30" value="不合格用户&lt;br style=&quot;font-size: 15px;&quot;&gt;进入隔离区" style="edgeLabel;html=1;align=center;verticalAlign=middle;resizable=0;points=[];fontSize=15;" vertex="1" connectable="0" parent="fO8qTspgher3NZT-mJDD-24">
          <mxGeometry x="-0.3421" y="-2" relative="1" as="geometry">
            <mxPoint x="-48" y="4" as="offset" />
          </mxGeometry>
        </mxCell>
        <mxCell id="fO8qTspgher3NZT-mJDD-12" value="安全认证" style="rounded=1;whiteSpace=wrap;html=1;fontSize=15;" vertex="1" parent="1">
          <mxGeometry x="445" y="290" width="120" height="60" as="geometry" />
        </mxCell>
        <mxCell id="fO8qTspgher3NZT-mJDD-15" value="动态授权" style="rounded=1;whiteSpace=wrap;html=1;fontSize=15;" vertex="1" parent="1">
          <mxGeometry x="662" y="290.5" width="120" height="60" as="geometry" />
        </mxCell>
        <mxCell id="fO8qTspgher3NZT-mJDD-17" value="认证失败" style="rounded=1;whiteSpace=wrap;html=1;fontSize=15;" vertex="1" parent="1">
          <mxGeometry x="225" y="400" width="120" height="60" as="geometry" />
        </mxCell>
        <mxCell id="fO8qTspgher3NZT-mJDD-18" value="隔离区" style="rounded=1;whiteSpace=wrap;html=1;fontSize=15;" vertex="1" parent="1">
          <mxGeometry x="445" y="400" width="120" height="60" as="geometry" />
        </mxCell>
        <mxCell id="fO8qTspgher3NZT-mJDD-25" value="接入请求" style="text;html=1;align=center;verticalAlign=middle;resizable=0;points=[];autosize=1;strokeColor=none;fillColor=none;fontSize=15;" vertex="1" parent="1">
          <mxGeometry x="140" y="290.5" width="80" height="30" as="geometry" />
        </mxCell>
        <mxCell id="fO8qTspgher3NZT-mJDD-31" value="不同类型的用户享受不同的网络使用权限" style="rounded=1;whiteSpace=wrap;html=1;strokeColor=none;fontSize=15;" vertex="1" parent="1">
          <mxGeometry x="662" y="360" width="120" height="60" as="geometry" />
        </mxCell>
      </root>
    </mxGraphModel>
  </diagram>
</mxfile>
